# AST/ASF file generated using VICON BodyLanguage
# -----------------------------------------------
:version 1.10
:name VICON
:units
  mass 1.0
  length 0.45
  angle deg
:documentation
   .ast/.asf automatically generated from VICON data using
   VICON BodyBuilder and BodyLanguage model FoxedUp or BRILLIANT.MOD
:root
   order TX TY TZ RX RY RZ
   axis XYZ
   position 0 0 0  
   orientation 0 0 0 
:bonedata
  begin
     id 1 
     name lhipjoint
     direction 0.575328 -0.747301 0.332475 
     length 2.40933 
     axis 0 0 0  XYZ
  end
  begin
     id 2 
     name lfemur
     direction 0.34202 -0.939693 0  
     length 7.31453  
     axis 0 0 20  XYZ
    dof rx ry rz
    limits (-160.0 20.0)
           (-70.0 70.0)
           (-60.0 70.0)
  end
  begin
     id 3 
     name ltibia
     direction 0.34202 -0.939693 0   
     length 7.82185   
     axis 0 0 20   XYZ
    dof rx
    limits (-10.0 170.0)
  end
  begin
     id 4 
     name lfoot
     direction 0.0795993 -0.218697 0.972541   
     length 2.19173   
     axis -90 7.62852e-016 20   XYZ
    dof rx rz
    limits (-45.0 90.0)
           (-70.0 20.0)
  end
  begin
     id 5 
     name ltoes
     direction 1.53537e-011 -4.21894e-011 1   
     length 1.10023   
     axis -90 7.62852e-016 20   XYZ
    dof rx
    limits (-90.0 20.0)
  end
  begin
     id 6 
     name rhipjoint
     direction -0.513884 -0.783789 0.348708   
     length 2.29716  
     axis 0 0 0  XYZ 
  end
  begin
     id 7 
     name rfemur
     direction -0.34202 -0.939693 0   
     length 7.59573   
     axis 0 0 -20   XYZ
    dof rx ry rz
    limits (-160.0 20.0)
           (-70.0 70.0)
           (-70.0 60.0)
  end
  begin
     id 8 
     name rtibia
     direction -0.34202 -0.939693 0   
     length 7.66402   
     axis 0 0 -20   XYZ
    dof rx
    limits (-10.0 170.0)
 end
 begin
     id 9 
     name rfoot
     direction -0.137793 -0.378584 0.915253   
     length 2.27056  
     axis -90 -7.62852e-016 -20   XYZ
    dof rx rz
    limits (-45.0 90.0)
           (-20.0 70.0)
  end
  begin
     id 10 
     name rtoes
     direction -1.53493e-011 -4.22159e-011 1   
     length 1.11766   
     axis -90 -7.62852e-016 -20   XYZ
    dof rx
    limits (-90.0 20.0)
  end
  begin
     id 11 
     name lowerback
     direction -0.00732775 0.998356 -0.05685   
     length 2.16513   
     axis 0 0 0   XYZ
    dof rx ry rz
    limits (-20.0 45.0)
           (-30.0 30.0)
           (-30.0 30.0)
  end
  begin
     id 12 
     name upperback
     direction 0.0218081 0.999627 -0.0164647   
     length 2.16755   
     axis 0 0 0   XYZ
    dof rx ry rz
    limits (-20.0 45.0)
           (-30.0 30.0)
           (-30.0 30.0)
  end
  begin
     id 13 
     name thorax
     direction 0.02365 0.999661 0.0108914   
     length 2.16932   
     axis 0 0 0   XYZ
    dof rx ry rz
    limits (-20.0 45.0)
           (-30.0 30.0)
           (-30.0 30.0)
  end
  begin
     id 14 
     name lowerneck
     direction -0.0523929 0.978385 0.200044   
     length 1.63877   
     axis 0 0 0   XYZ
    dof rx ry rz
    limits (-20.0 45.0)
           (-30.0 30.0)
           (-30.0 30.0)
  end
  begin
     id 15 
     name upperneck
     direction 0.0448674 0.981321 -0.187074   
     length 1.69014   
     axis 0 0 0   XYZ
    dof rx ry rz
    limits (-20.0 45.0)
           (-30.0 30.0)
           (-30.0 30.0)
  end
  begin
     id 16
     name head
     direction 0.0199089 0.996118 -0.0857429  
     length 1.70094  
     axis 0 0 0   XYZ
    dof rx ry rz
    limits (-20.0 45.0)
           (-30.0 30.0)
           (-30.0 30.0)
  end
  begin
     id 17 
     name lclavicle
     direction 0.940366 0.30191 -0.156722  
     length 3.37521  
     axis 0 0 0   XYZ
    dof ry rz
    limits (-20.0 10.0)
           (0.0 20.0)
  end
  begin
     id 18 
     name lhumerus
     direction 1 -4.4897e-011 -1.7911e-027   
     length 5.25287   
     axis 180 -30 -90   XYZ
    dof rx ry rz
    limits (-60.0 90.0)
           (-90.0 90.0)
           (-90.0 90.0)
  end
  begin
     id 19
     name lradius
     direction 1 -4.48951e-011 1.04424e-027   
     length 3.51014   
     axis 180 -30 -90   XYZ
    dof rx
    limits (-10.0 170.0)
  end
  begin
     id 20
     name lwrist
     direction 1 -4.48997e-011 -9.5942e-028   
     length 1.75507   
     axis 8.48502e-016 90 90   XYZ
    dof ry
    limits (-180.0 0.0)
 end
  begin
     id 21 
     name lhand
     direction 1 -4.48831e-011 -1.90777e-027   
     length 0.706179   
     axis 1.22306e-015 90 90   XYZ
    dof rx rz
    limits (-90.0 90.0)
           (-45.0 45.0)
  end
  begin
     id 22 
     name lfingers
     direction 1 -4.49108e-011 -3.85244e-027   
     length 0.569339   
     axis 2.44611e-015 90 90   XYZ
    dof rx
    limits (0.0 90.0)
  end
  begin
     id 23
     name lthumb
     direction 0.707107 -6.34953e-011 0.707107   
     length 0.817461   
     axis -90 45 -1.62303e-014   XYZ
    dof rx rz
    limits (-45.0 45.0)
           (-45.0 45.0)
  end
  begin
     id 24 
     name rclavicle
     direction -0.905329 0.382405 -0.184787   
     length 3.30787  
     axis 0 0 0   XYZ 
    dof ry rz
    limits (-10.0 20.0)
           (-20.0 0.0)
  end
  begin
     id 25 
     name rhumerus
     direction -1 -4.48953e-011 -9.15316e-029  
     length 5.28721   
     axis 180 30 90   XYZ
    dof rx ry rz
    limits (-90.0 60.0)
           (-90.0 90.0)
           (-90.0 90.0)
  end
  begin
     id 26 
     name rradius
     direction -1 -4.48987e-011 9.37824e-028   
     length 3.50544   
     axis 180 30 90   XYZ
    dof rx
    limits (-10.0 170.0)
  end
  begin
     id 27 
     name rwrist
     direction -1 -4.48967e-011 -9.58414e-028   
     length 1.75272   
     axis 8.48502e-016 -90 -90   XYZ
    dof ry
    limits (-180.0 0.0)
  end
  begin
     id 28
     name rhand
     direction -1 -4.48904e-011 -1.91266e-027   
     length 0.884996   
     axis 1.22306e-015 -90 -90   XYZ
    dof rx rz
    limits (-90.0 90.0)
           (-45.0 45.0)
  end
  begin
     id 29
     name rfingers
     direction -1 -4.4909e-011 -3.85015e-027   
     length 0.713507   
     axis 2.44611e-015 -90 -90   XYZ
    dof rx
    limits (0.0 90.0)
  end
  begin
     id 30
     name rthumb
     direction -0.707107 -6.34853e-011 0.707107   
     length 1.02446   
     axis -90 -45 1.62303e-014   XYZ
    dof rx rz
    limits (-45.0 45.0)
           (-45.0 45.0)
  end
:hierarchy
  begin
    root lhipjoint rhipjoint lowerback
    lhipjoint lfemur
    lfemur ltibia
    ltibia lfoot
    lfoot ltoes
    rhipjoint rfemur
    rfemur rtibia
    rtibia rfoot
    rfoot rtoes
    lowerback upperback
    upperback thorax
    thorax lowerneck lclavicle rclavicle
    lowerneck upperneck
    upperneck head
    lclavicle lhumerus
    lhumerus lradius
    lradius lwrist
    lwrist lhand lthumb
    lhand lfingers
    rclavicle rhumerus
    rhumerus rradius
    rradius rwrist
    rwrist rhand rthumb
    rhand rfingers
  end

#!OML:ASF F:\twosubjects\two\Thursday\Session 1\justin.ASF
:FULLY-SPECIFIED
:DEGREES
164
root 8.32603 18.2332 2.98386 -162.482 17.0737 179.158
lowerback 8.82862 3.38172 -5.84638
upperback 9.41027 5.75496 10.2605
thorax 3.52776 2.97073 14.2463
lowerneck -10.2456 -13.0358 -11.0262
upperneck 34.9237 -16.6072 10.146
head 16.106 -6.39025 3.51303
rclavicle 2.70347e-014 5.08889e-014
rhumerus 65.651 -5.46535 -57.205
rradius 57.534
rwrist -21.9568
rhand -54.0917 15.4373
rfingers 7.12502
rthumb -26.5111 -12.7279
lclavicle 2.70347e-014 5.08889e-014
lhumerus 63.9856 -5.01819 85.7178
lradius 62.6556
lwrist 2.26478
lhand -28.2284 55.6557
lfingers 7.12502
lthumb -1.60655 445.629
rfemur -29.7573 2.08861 9.57321
rtibia 31.3112
rfoot -18.9054 -1.99022
rtoes -14.1885
lfemur -25.3351 9.95107 -23.4913
ltibia 20.7348
lfoot -10.4603 -1.51574
ltoes -14.128
165
root 8.30825 18.2226 2.95502 -162.576 17.0689 179.051
lowerback 8.85485 3.33284 -5.98958
upperback 9.40833 5.67968 10.2673
thorax 3.52419 2.92401 14.3512
lowerneck -10.7673 -13.0358 -10.8976
upperneck 34.9617 -16.5921 9.92899
head 16.1996 -6.38336 3.37226
rclavicle -4.45278e-014 -1.145e-013
rhumerus 65.435 -5.29524 -56.35
rradius 57.31
rwrist -24.8036
rhand -55.7229 21.9617
rfingers 7.12502
rthumb -28.0714 -5.95795
lclavicle -4.45278e-014 -1.145e-013
lhumerus 64.0272 -5.07404 85.5592
lradius 62.429
lwrist 2.41781
lhand -28.1735 55.3637
lfingers 7.12502
lthumb -1.55347 445.338
rfemur -29.5934 2.21925 9.3253
rtibia 31.3544
rfoot -19.028 -2.03656
rtoes -12.7185
lfemur -25.2238 9.81964 -23.6338
ltibia 20.8307
lfoot -10.7027 -1.45024
ltoes -13.3818
166
root 8.2894 18.2193 2.92606 -162.749 16.9981 178.911
lowerback 8.94714 3.26539 -6.0621
upperback 9.4406 5.58146 10.2136
thorax 3.53757 2.86871 14.3395
lowerneck -11.2893 -12.9601 -10.8339
upperneck 34.8692 -16.5711 10.0479
head 16.2806 -6.34714 3.38573
rclavicle 1.11319e-014 -2.8625e-014
rhumerus 65.6928 -5.6319 -56.852
rradius 56.9263
rwrist -22.7751
rhand -55.0045 16.8084
rfingers 7.12502
rthumb -27.3845 -11.2218
lclavicle 1.11319e-014 -2.8625e-014
lhumerus 64.0619 -5.22425 85.4341
lradius 62.3126
lwrist 2.52825
lhand -27.8553 54.9865
lfingers 7.12502
lthumb -1.24614 444.963
rfemur -29.3883 2.08631 9.15825
rtibia 31.4379
rfoot -18.9644 -2.29614
rtoes -12.0622
lfemur -25.034 9.72506 -23.7985
ltibia 20.9328
lfoot -10.982 -1.53297
ltoes -12.6523
167
root 8.27205 18.2193 2.89472 -162.958 17.0257 178.811
lowerback 8.99299 3.21864 -6.0292
upperback 9.48606 5.50918 10.0981
thorax 3.5936 2.82782 14.1896
lowerneck -11.6486 -12.9312 -10.7447
upperneck 34.7988 -16.5759 10.0332
head 16.3164 -6.33853 3.34054
rclavicle -1.04958e-013 -2.16278e-013
rhumerus 65.8985 -5.77588 -57.3286
rradius 56.5115
rwrist -22.0497
rhand -55.0497 15.812
rfingers 7.12502
rthumb -27.4277 -12.2114
lclavicle -1.04958e-013 -2.16278e-013
lhumerus 64.1866 -5.35 85.1009
lradius 62.1548
lwrist 2.68913
lhand -27.8464 54.7735
lfingers 7.12502
lthumb -1.23757 444.75
rfemur -29.1783 1.95109 9.0462
rtibia 31.5654
rfoot -18.8613 -2.47728
rtoes -11.8614
lfemur -24.787 9.80953 -23.9642
ltibia 21.0609
lfoot -11.1687 -1.67933
ltoes -12.1731
168
root 8.26063 18.2096 2.86113 -163.097 17.0992 178.81
lowerback 8.97509 3.17842 -5.94788
upperback 9.47893 5.44696 10.025
thorax 3.62299 2.79623 14.0599
lowerneck -12.1241 -13.0157 -10.7397
upperneck 35.1028 -16.6133 9.76977
head 16.5575 -6.35642 3.20159
rclavicle 6.67916e-014 1.33583e-013
rhumerus 66.0242 -5.74702 -58
rradius 56.2012
rwrist -21.8565
rhand -54.8333 16.2076
rfingers 7.12502
rthumb -27.2207 -11.8484
lclavicle 6.67916e-014 1.33583e-013
lhumerus 64.247 -5.39064 84.6625
lradius 61.7892
lwrist 2.91376
lhand -28.5025 54.7469
lfingers 7.12502
lthumb -1.87125 444.718
rfemur -28.9828 1.79429 9.01494
rtibia 31.6878
rfoot -19.1703 -2.23781
rtoes -11.7826
lfemur -24.6058 9.95438 -24.0411
ltibia 21.2348
lfoot -11.3298 -1.73719
ltoes -12.139
169
root 8.24961 18.2034 2.83024 -163.119 17.0396 179.031
lowerback 8.98796 3.09433 -5.70912
upperback 9.38054 5.34559 10.0791
thorax 3.54552 2.76443 13.978
lowerneck -12.4245 -13.0449 -10.8484
upperneck 35.3251 -16.5795 9.6352
head 16.7378 -6.35103 3.15919
rclavicle 1.11319e-013 7.63333e-014
rhumerus 66.2056 -5.58297 -58.9616
rradius 55.7094
rwrist -21.2841
rhand -54.317 16.1743
rfingers 7.12502
rthumb -26.7268 -11.9581
lclavicle 1.11319e-013 7.63333e-014
lhumerus 64.0826 -5.41085 84.3745
lradius 61.4314
lwrist 2.97731
lhand -28.4441 54.5014
lfingers 7.12502
lthumb -1.81478 444.473
rfemur -28.8485 1.53497 9.26703
rtibia 31.7794
rfoot -19.4436 -1.9379
rtoes -11.6641
lfemur -24.5356 9.87127 -23.8004
ltibia 21.4933
lfoot -11.4635 -1.63352
ltoes -11.7368
170
root 8.23647 18.2021 2.79985 -163.058 16.9062 179.545
lowerback 8.99661 2.9798 -5.17816
upperback 9.27503 5.23797 10.2107
thorax 3.47471 2.74986 13.808
lowerneck -12.4871 -12.946 -11.2984
upperneck 35.2352 -16.5199 10.2002
head 16.8372 -6.31317 3.49051
rclavicle 5.08889e-014 8.5875e-014
rhumerus 65.578 -5.39627 -57.7827
rradius 55.639
rwrist -23.1128
rhand -55.0578 18.2714
rfingers 7.12502
rthumb -27.4355 -9.75078
lclavicle 5.08889e-014 8.5875e-014
lhumerus 63.8838 -5.49231 84.1993
lradius 61.1635
lwrist 2.87465
lhand -27.4251 54.2351
lfingers 7.12502
lthumb -0.830626 444.213
rfemur -28.728 1.44371 9.83
rtibia 31.8658
rfoot -19.3734 -1.90826
rtoes -11.3995
lfemur -24.5156 9.82618 -23.2404
ltibia 21.8233
lfoot -11.6166 -1.54275
ltoes -11.4234
171
root 8.22093 18.1928 2.76459 -163.129 16.8833 179.717
lowerback 8.9772 2.89288 -4.9905
upperback 9.22516 5.13845 10.2791
thorax 3.46381 2.71248 13.7825
lowerneck -12.6313 -12.7433 -11.7817
upperneck 35.0232 -16.3153 10.7951
head 16.874 -6.22351 3.86592
rclavicle -1.22451e-013 -1.17681e-013
rhumerus 65.5444 -5.12503 -58.2368
rradius 55.5505
rwrist -23.7562
rhand -55.2377 20.7329
rfingers 7.12502
rthumb -27.6074 -7.26186
lclavicle -1.22451e-013 -1.17681e-013
lhumerus 63.8046 -5.56369 84.118
lradius 60.8469
lwrist 2.79288
lhand -27.1784 54.4297
lfingers 7.12502
lthumb -0.592405 444.409
rfemur -28.5509 1.35396 9.97373
rtibia 32.0143
rfoot -19.3652 -1.81694
rtoes -11.7457
lfemur -24.4376 9.817 -23.0922
ltibia 22.1647
lfoot -11.8689 -1.44266
ltoes -11.4481
172
root 8.20391 18.18 2.72592 -163.313 16.9462 179.533
lowerback 8.85602 2.82325 -5.08155
upperback 9.22601 5.02454 10.219
thorax 3.5624 2.63906 13.7912
lowerneck -12.7489 -12.4941 -11.6964
upperneck 34.6099 -15.963 10.6376
head 16.5868 -6.1149 3.82996
rclavicle -2.54444e-014 -8.5875e-014
rhumerus 65.5735 -4.94589 -58.6867
rradius 55.3372
rwrist -23.6566
rhand -55.111 21.6205
rfingers 7.12502
rthumb -27.4863 -6.39357
lclavicle -2.54444e-014 -8.5875e-014
lhumerus 63.8127 -5.63061 83.9558
lradius 60.555
lwrist 2.78423
lhand -27.4799 54.7339
lfingers 7.12502
lthumb -0.883595 444.712
rfemur -28.4414 0.996523 9.75268
rtibia 32.2877
rfoot -19.3028 -1.45361
rtoes -12.6671
lfemur -24.2783 9.68096 -23.3209
ltibia 22.4429
lfoot -12.2116 -1.27268
ltoes -11.5278
